<svg width="24" height="22" viewBox="0 0 24 22" fill="none" xmlns="http://www.w3.org/2000/svg">
<path d="M17.3333 5.3335H6.66665C5.93331 5.3335 5.33331 5.9335 5.33331 6.66683V17.0602C5.33331 17.6535 6.05331 17.9535 6.47331 17.5335L7.99998 16.0002H17.3333C18.0666 16.0002 18.6666 15.4002 18.6666 14.6668V6.66683C18.6666 5.9335 18.0666 5.3335 17.3333 5.3335ZM13.0466 11.7135L12.3 13.3402C12.2735 13.3984 12.2308 13.4477 12.177 13.4823C12.1232 13.5169 12.0606 13.5353 11.9966 13.5353C11.9327 13.5353 11.8701 13.5169 11.8163 13.4823C11.7625 13.4477 11.7198 13.3984 11.6933 13.3402L10.9466 11.7135L9.31998 10.9668C9.26178 10.9403 9.21244 10.8976 9.17784 10.8438C9.14325 10.79 9.12485 10.7274 9.12485 10.6635C9.12485 10.5995 9.14325 10.5369 9.17784 10.4832C9.21244 10.4294 9.26178 10.3867 9.31998 10.3602L10.9466 9.6135L11.6933 7.98683C11.7198 7.92863 11.7625 7.87929 11.8163 7.84469C11.8701 7.8101 11.9327 7.7917 11.9966 7.7917C12.0606 7.7917 12.1232 7.8101 12.177 7.84469C12.2308 7.87929 12.2735 7.92863 12.3 7.98683L13.0466 9.6135L14.6733 10.3602C14.7315 10.3867 14.7808 10.4294 14.8154 10.4832C14.85 10.5369 14.8684 10.5995 14.8684 10.6635C14.8684 10.7274 14.85 10.79 14.8154 10.8438C14.7808 10.8976 14.7315 10.9403 14.6733 10.9668L13.0466 11.7135Z" fill="#BDBDBD"/>
</svg>
