<svg viewBox="0 0 24 22" fill="none" xmlns="http://www.w3.org/2000/svg">
<path d="M7.13826 4.59443C7.15055 4.46521 7.21228 4.34572 7.31057 4.26093C7.40886 4.17613 7.5361 4.13258 7.66574 4.13936C7.79537 4.14614 7.91737 4.20274 8.00627 4.29733C8.09517 4.39192 8.1441 4.5172 8.14283 4.647V7.99958C8.14283 8.11324 8.18798 8.22225 8.26836 8.30262C8.34873 8.38299 8.45774 8.42815 8.5714 8.42815C8.68507 8.42815 8.79408 8.38299 8.87445 8.30262C8.95482 8.22225 8.99997 8.11324 8.99997 7.99958V4.57158C8.99997 4.45791 9.04513 4.3489 9.1255 4.26853C9.20587 4.18816 9.31488 4.143 9.42855 4.143C9.54221 4.143 9.65122 4.18816 9.73159 4.26853C9.81196 4.3489 9.85712 4.45791 9.85712 4.57158V7.99958C9.85712 8.11324 9.90227 8.22225 9.98264 8.30262C10.063 8.38299 10.172 8.42815 10.2857 8.42815C10.3994 8.42815 10.5084 8.38299 10.5887 8.30262C10.6691 8.22225 10.7143 8.11324 10.7143 7.99958V4.647C10.7157 4.51891 10.7659 4.39619 10.8547 4.30378C10.9434 4.21137 11.064 4.15622 11.1919 4.14952C11.3198 4.14283 11.4455 4.1851 11.5434 4.26774C11.6412 4.35038 11.704 4.46719 11.7188 4.59443C11.7623 5.007 12 7.32872 12 8.42872C12 9.19329 11.6657 9.88015 11.1371 10.351C10.9463 10.5201 10.8571 10.6944 10.8571 10.8407V11.2561L10.8577 11.283C10.8817 11.6253 11.1428 15.447 11.1428 16.143C11.1428 16.3681 11.0985 16.591 11.0123 16.799C10.9262 17.007 10.7999 17.196 10.6407 17.3552C10.4815 17.5144 10.2926 17.6406 10.0846 17.7268C9.87659 17.8129 9.65367 17.8573 9.42855 17.8573C9.20342 17.8573 8.9805 17.8129 8.77252 17.7268C8.56453 17.6406 8.37555 17.5144 8.21636 17.3552C8.05718 17.196 7.9309 17.007 7.84475 16.799C7.7586 16.591 7.71426 16.3681 7.71426 16.143C7.71426 15.447 7.97597 11.6253 7.9994 11.283L7.99997 11.2561V10.8407C7.99997 10.695 7.91083 10.5207 7.71997 10.351C7.44856 10.1097 7.23134 9.81363 7.08261 9.4823C6.93389 9.15097 6.85704 8.7919 6.85712 8.42872C6.85712 7.32872 7.09483 5.007 7.13826 4.59443ZM14.8314 11.0001L14.8131 11.3179C14.7863 11.7847 14.7503 12.415 14.7148 13.0676C14.644 14.363 14.5714 15.7727 14.5714 16.143C14.5714 16.3681 14.6157 16.591 14.7019 16.799C14.788 17.007 14.9143 17.196 15.0735 17.3552C15.2327 17.5144 15.4217 17.6406 15.6297 17.7268C15.8376 17.8129 16.0606 17.8573 16.2857 17.8573C16.5108 17.8573 16.7337 17.8129 16.9417 17.7268C17.1497 17.6406 17.3387 17.5144 17.4979 17.3552C17.6571 17.196 17.7833 17.007 17.8695 16.799C17.9556 16.591 18 16.3681 18 16.143C18 15.731 17.9097 14.1579 17.832 12.7973L17.8297 12.7596C17.7674 11.6744 17.7143 10.743 17.7143 10.5716V4.57158C17.7143 4.45791 17.6691 4.3489 17.5887 4.26853C17.5084 4.18816 17.3994 4.143 17.2857 4.143H17C15.977 4.143 14.9959 4.54938 14.2726 5.27274C13.5492 5.99609 13.1428 6.97717 13.1428 8.00015V10.0001C13.1428 10.5521 13.5908 11.0001 14.1428 11.0001H14.8314Z" fill="currentColor"/>
</svg>
