<svg width="24" height="22" viewBox="0 0 24 22" fill="none" xmlns="http://www.w3.org/2000/svg">
<g clip-path="url(#clip0_378_860)">
<path d="M16 14H9.76125L8.48 15.0938L7.19875 14H4.5V14.75C4.5 15.7059 5.16031 16.4847 5.97687 16.5C6.05281 16.9725 6.23656 17.3994 6.51312 17.7334C6.92219 18.2275 7.51688 18.5 8.1875 18.5H12.3125C12.9831 18.5 13.5778 18.2275 13.9869 17.7328C14.2634 17.3988 14.4472 16.9719 14.5231 16.4994C14.9569 16.4916 15.3466 16.2681 15.6169 15.9172C15.8693 15.5808 16.004 15.1706 16 14.75V14ZM7.28125 13L8.47906 13.8809L9.6875 13H16V12.75C15.9996 12.4619 15.9 12.1828 15.7178 11.9597C15.5357 11.7365 15.2822 11.583 15 11.525C14.9744 10.5972 14.5937 9.82063 13.8903 9.275C13.2397 8.7675 12.3703 8.5 11.375 8.5H9.125C6.99312 8.5 5.54906 9.71156 5.5 11.525C5.21785 11.583 4.96432 11.7365 4.78217 11.9597C4.60001 12.1828 4.50035 12.4619 4.5 12.75V13H7.28125Z" fill="#BDBDBD"/>
<path d="M18.4712 6H16.1403L16.4191 4.88563L17.8125 4.40625L17.5 3.5L15.5625 4.125L15.1097 6H10.5V7H11.0859L11.1441 7.5H11.375C12.5938 7.5 13.6769 7.84063 14.5037 8.485C14.9637 8.83937 15.3365 9.29418 15.5938 9.81469C15.7523 10.1376 15.8651 10.481 15.9291 10.835C16.3947 11.1217 16.74 11.5682 16.9004 12.091C17.0608 12.6138 17.0254 13.1771 16.8006 13.6756C16.9323 14.0185 16.9999 14.3827 17 14.75C17 15.4481 16.7625 16.1134 16.3313 16.6234C16.0644 16.9414 15.7225 17.1878 15.3366 17.3406C15.205 17.7155 15.0091 18.0644 14.7575 18.3719C14.7206 18.4162 14.6828 18.4597 14.6441 18.5016H17C17.5 18.5016 17.7188 18.2516 17.7812 17.7828L18.9187 7.00156H19.5V6H18.4712Z" fill="#BDBDBD"/>
</g>
<defs>
<clipPath id="clip0_378_860">
<rect width="16" height="16" fill="white" transform="translate(4 3)"/>
</clipPath>
</defs>
</svg>
