<svg width="24" height="22" viewBox="0 0 24 22" fill="none" xmlns="http://www.w3.org/2000/svg">
<path d="M8.5 8C8.5 8.92826 8.86875 9.8185 9.52513 10.4749C10.1815 11.1313 11.0717 11.5 12 11.5C12.9283 11.5 13.8185 11.1313 14.4749 10.4749C15.1313 9.8185 15.5 8.92826 15.5 8C15.5 7.07174 15.1313 6.1815 14.4749 5.52513C13.8185 4.86875 12.9283 4.5 12 4.5C11.0717 4.5 10.1815 4.86875 9.52513 5.52513C8.86875 6.1815 8.5 7.07174 8.5 8ZM17 17.5H6.5C6.36739 17.5 6.24021 17.4473 6.14645 17.3536C6.05268 17.2598 6 17.1326 6 17V15.5C6 14.837 6.26339 14.2011 6.73223 13.7322C7.20107 13.2634 7.83696 13 8.5 13H15.5C16.163 13 16.7989 13.2634 17.2678 13.7322C17.7366 14.2011 18 14.837 18 15.5V17C18 17.1326 17.9473 17.2598 17.8536 17.3536C17.7598 17.4473 17.6326 17.5 17.5 17.5H17Z" fill="#BDBDBD"/>
</svg>
