<svg width="24" height="22" viewBox="0 0 24 22" fill="none" xmlns="http://www.w3.org/2000/svg">
<path d="M6 16.5143V9.82857C6 9.59333 6.05325 9.37048 6.15975 9.16C6.26625 8.94952 6.413 8.77619 6.6 8.64L11.1 5.29714C11.3625 5.09905 11.6625 5 12 5C12.3375 5 12.6375 5.09905 12.9 5.29714L17.4 8.64C17.5875 8.77619 17.7345 8.94952 17.841 9.16C17.9475 9.37048 18.0005 9.59333 18 9.82857V16.5143C18 16.9229 17.853 17.2727 17.559 17.5639C17.265 17.8551 16.912 18.0005 16.5 18H14.25C14.0375 18 13.8595 17.9287 13.716 17.7861C13.5725 17.6434 13.5005 17.4671 13.5 17.2571V13.5429C13.5 13.3324 13.428 13.1561 13.284 13.0139C13.14 12.8718 12.962 12.8005 12.75 12.8H11.25C11.0375 12.8 10.8595 12.8713 10.716 13.0139C10.5725 13.1566 10.5005 13.3329 10.5 13.5429V17.2571C10.5 17.4676 10.428 17.6442 10.284 17.7868C10.14 17.9294 9.962 18.0005 9.75 18H7.5C7.0875 18 6.7345 17.8546 6.441 17.5639C6.1475 17.2732 6.0005 16.9233 6 16.5143Z" fill="#BDBDBD"/>
</svg>
